<mxfile host="www.draw.io" modified="2019-12-24T07:51:30.564Z" agent="Mozilla/5.0 (Macintosh; Intel Mac OS X 10_15_2) AppleWebKit/537.36 (KHTML, like Gecko) Chrome/79.0.3945.79 Safari/537.36" etag="ajISA4k1ig3Jyq6IzMSl" version="12.4.3" type="github" pages="1">
  <diagram id="kERoWXNYL2rC32NrlxHL" name="Page-1">
    <mxGraphModel dx="946" dy="614" grid="1" gridSize="10" guides="1" tooltips="1" connect="1" arrows="1" fold="1" page="1" pageScale="1" pageWidth="827" pageHeight="1169" math="0" shadow="0">
      <root>
        <mxCell id="0"/>
        <mxCell id="1" parent="0"/>
        <mxCell id="1ThyMEYWPFRVHze4H2DF-11" value="" style="rounded=0;whiteSpace=wrap;html=1;dashed=1;strokeWidth=2;" vertex="1" parent="1">
          <mxGeometry x="197.5" y="220" width="345" height="175" as="geometry"/>
        </mxCell>
        <mxCell id="1ThyMEYWPFRVHze4H2DF-3" value="" style="rounded=0;whiteSpace=wrap;html=1;fillColor=#f5f5f5;strokeColor=#666666;fontColor=#333333;" vertex="1" parent="1">
          <mxGeometry x="430" y="250" width="100" height="120" as="geometry"/>
        </mxCell>
        <mxCell id="1ThyMEYWPFRVHze4H2DF-2" value="" style="rounded=0;whiteSpace=wrap;html=1;fillColor=#f5f5f5;strokeColor=#666666;fontColor=#333333;" vertex="1" parent="1">
          <mxGeometry x="320" y="250" width="100" height="120" as="geometry"/>
        </mxCell>
        <mxCell id="1ThyMEYWPFRVHze4H2DF-1" value="" style="rounded=0;whiteSpace=wrap;html=1;fillColor=#f5f5f5;strokeColor=#666666;fontColor=#333333;" vertex="1" parent="1">
          <mxGeometry x="210" y="250" width="100" height="120" as="geometry"/>
        </mxCell>
        <mxCell id="1ThyMEYWPFRVHze4H2DF-4" value="p0" style="rounded=0;whiteSpace=wrap;html=1;fillColor=#ffe6cc;strokeColor=#d79b00;" vertex="1" parent="1">
          <mxGeometry x="235" y="270" width="50" height="30" as="geometry"/>
        </mxCell>
        <mxCell id="1ThyMEYWPFRVHze4H2DF-5" value="p3" style="rounded=0;whiteSpace=wrap;html=1;fillColor=#ffe6cc;strokeColor=#d79b00;" vertex="1" parent="1">
          <mxGeometry x="235" y="320" width="50" height="30" as="geometry"/>
        </mxCell>
        <mxCell id="1ThyMEYWPFRVHze4H2DF-7" value="p1" style="rounded=0;whiteSpace=wrap;html=1;fillColor=#ffe6cc;strokeColor=#d79b00;" vertex="1" parent="1">
          <mxGeometry x="345" y="270" width="50" height="30" as="geometry"/>
        </mxCell>
        <mxCell id="1ThyMEYWPFRVHze4H2DF-8" value="p4" style="rounded=0;whiteSpace=wrap;html=1;fillColor=#ffe6cc;strokeColor=#d79b00;" vertex="1" parent="1">
          <mxGeometry x="345" y="320" width="50" height="30" as="geometry"/>
        </mxCell>
        <mxCell id="1ThyMEYWPFRVHze4H2DF-9" value="p2" style="rounded=0;whiteSpace=wrap;html=1;fillColor=#ffe6cc;strokeColor=#d79b00;" vertex="1" parent="1">
          <mxGeometry x="455" y="270" width="50" height="30" as="geometry"/>
        </mxCell>
        <mxCell id="1ThyMEYWPFRVHze4H2DF-10" value="p5" style="rounded=0;whiteSpace=wrap;html=1;fillColor=#ffe6cc;strokeColor=#d79b00;" vertex="1" parent="1">
          <mxGeometry x="455" y="320" width="50" height="30" as="geometry"/>
        </mxCell>
        <mxCell id="1ThyMEYWPFRVHze4H2DF-12" value="&lt;font style=&quot;font-size: 17px&quot;&gt;topic&lt;/font&gt;" style="text;html=1;align=center;verticalAlign=middle;resizable=0;points=[];;autosize=1;" vertex="1" parent="1">
          <mxGeometry x="190" y="190" width="50" height="20" as="geometry"/>
        </mxCell>
        <mxCell id="1ThyMEYWPFRVHze4H2DF-13" value="&lt;font style=&quot;font-size: 14px&quot;&gt;broker0&lt;/font&gt;" style="text;html=1;align=center;verticalAlign=middle;resizable=0;points=[];;autosize=1;" vertex="1" parent="1">
          <mxGeometry x="225" y="230" width="60" height="20" as="geometry"/>
        </mxCell>
        <mxCell id="1ThyMEYWPFRVHze4H2DF-14" value="&lt;font style=&quot;font-size: 14px&quot;&gt;broker1&lt;/font&gt;" style="text;html=1;align=center;verticalAlign=middle;resizable=0;points=[];;autosize=1;" vertex="1" parent="1">
          <mxGeometry x="335" y="230" width="60" height="20" as="geometry"/>
        </mxCell>
        <mxCell id="1ThyMEYWPFRVHze4H2DF-15" value="&lt;font style=&quot;font-size: 14px&quot;&gt;broker2&lt;/font&gt;" style="text;html=1;align=center;verticalAlign=middle;resizable=0;points=[];;autosize=1;" vertex="1" parent="1">
          <mxGeometry x="450" y="230" width="60" height="20" as="geometry"/>
        </mxCell>
        <mxCell id="1ThyMEYWPFRVHze4H2DF-17" style="edgeStyle=orthogonalEdgeStyle;rounded=0;orthogonalLoop=1;jettySize=auto;html=1;entryX=1;entryY=0.5;entryDx=0;entryDy=0;fillColor=#ffe6cc;strokeColor=#d79b00;" edge="1" parent="1" source="1ThyMEYWPFRVHze4H2DF-16" target="1ThyMEYWPFRVHze4H2DF-3">
          <mxGeometry relative="1" as="geometry">
            <Array as="points">
              <mxPoint x="550" y="110"/>
              <mxPoint x="550" y="310"/>
            </Array>
          </mxGeometry>
        </mxCell>
        <mxCell id="1ThyMEYWPFRVHze4H2DF-18" value="p5分区分配在broker2中" style="text;html=1;align=center;verticalAlign=middle;resizable=0;points=[];;labelBackgroundColor=#ffffff;" vertex="1" connectable="0" parent="1ThyMEYWPFRVHze4H2DF-17">
          <mxGeometry x="-0.2903" y="3" relative="1" as="geometry">
            <mxPoint as="offset"/>
          </mxGeometry>
        </mxCell>
        <mxCell id="1ThyMEYWPFRVHze4H2DF-16" value="&lt;font style=&quot;font-size: 14px&quot;&gt;&amp;nbsp;5%3=2&lt;/font&gt;" style="text;html=1;align=center;verticalAlign=middle;resizable=0;points=[];;autosize=1;" vertex="1" parent="1">
          <mxGeometry x="420" y="100" width="60" height="20" as="geometry"/>
        </mxCell>
      </root>
    </mxGraphModel>
  </diagram>
</mxfile>
